<?xml version="1.0" encoding="utf-8"?><!-- Uploaded to: SVG Repo, www.svgrepo.com, Generator: SVG Repo Mixer Tools -->
<svg width="800px" height="800px" viewBox="0 0 400 400" fill="none" xmlns="http://www.w3.org/2000/svg">
<path opacity="0.503384" d="M226.735 262.518L221.172 222.55C202.372 228.616 185.836 224.235 168.322 222.55" stroke="#000000" stroke-opacity="0.9" stroke-width="14" stroke-linecap="round" stroke-linejoin="round"/>
<path opacity="0.503384" d="M226.735 282.086C208.321 285.209 185.748 290.33 168.322 285.957" stroke="#000000" stroke-opacity="0.9" stroke-width="14" stroke-linecap="round" stroke-linejoin="round"/>
<path d="M243.425 337.247C220.142 339.138 174.137 353.883 154.042 340.51C152.872 339.733 122.977 176.322 178.754 162.48" stroke="#000000" stroke-opacity="0.9" stroke-width="16" stroke-linecap="round" stroke-linejoin="round"/>
<path d="M229.517 163.871C259.098 183.07 255.594 283.718 255.594 330.764" stroke="#000000" stroke-opacity="0.9" stroke-width="16" stroke-linecap="round" stroke-linejoin="round"/>
<path d="M176.667 148.572C178.089 118.348 176.786 89.085 180.839 59.563" stroke="#000000" stroke-opacity="0.9" stroke-width="16" stroke-linecap="round" stroke-linejoin="round"/>
<path d="M189.185 57.1846C195.714 59.1952 213.484 51.2808 219.227 55.0163C224.682 58.5638 218.337 133.619 222.563 162.48" stroke="#000000" stroke-opacity="0.9" stroke-width="16" stroke-linecap="round" stroke-linejoin="round"/>
</svg>