<?xml version="1.0" encoding="utf-8"?>
<!-- Generator: Adobe Illustrator 27.5.0, SVG Export Plug-In . SVG Version: 6.00 Build 0)  -->
<svg version="1.1" xmlns="http://www.w3.org/2000/svg" xmlns:xlink="http://www.w3.org/1999/xlink" x="0px" y="0px"
	 viewBox="0 0 500 500" style="enable-background:new 0 0 500 500;" xml:space="preserve">
<g id="BACKGROUND">
	<rect style="opacity:0.8;fill:transparent;" width="501.012" height="500"/>
</g>
<g id="OBJECTS">
	<g>
		<g>
			<g>
				<path style="opacity:0.2;fill:#6FADAE;" d="M338.001,183.76c-4.195-8.155-8.197-15.654-17.249-16.133
					c-13.808-0.728-10.05,9.887-16.568,18.562c-8.009,10.662-7.748,3.028-20.145,6.405c-7.436,2.026-17.49,12.026-17.349,20.303
					c7.389,4.913,12.982,1.146,19.995,2.022c8.034,1.005,14.743,6.092,23.25,6.73c17.462,1.3,36.108-4.91,52.751-5.355
					c11.459-0.309,36.671,16.463,47.643,2.196c12.225-15.877-19.082-35.109-31.394-36.081c1.685-39.234-34.375-14.995-42.37-0.265"
					/>
				<path style="opacity:0.2;fill:#6FADAE;" d="M334.063,68.689c-6.103-11.856-11.935-22.777-26.022-24.027
					c-21.483-1.899-16.202,13.445-26.824,25.376c-13.068,14.673-12.24,3.823-31.749,7.852
					c-11.699,2.416-27.917,16.022-28.136,27.804c11.239,7.449,20.172,2.444,31.052,4.129c12.476,1.926,22.664,9.592,35.885,11.027
					c27.146,2.943,56.547-4.726,82.51-4.317c17.891,0.281,56.276,25.72,74.163,6.114c19.907-21.831-27.868-51.161-46.998-53.315
					c4.748-55.717-52.779-23.488-66.029-3.022"/>
				<path style="opacity:0.2;fill:#6FADAE;" d="M128.12,93.438c-4.65-8.235-9.082-15.805-19.091-16.297
					C93.761,76.39,97.928,87.11,90.733,95.854c-8.846,10.754-8.563,3.053-22.266,6.441c-8.218,2.037-19.327,12.118-19.154,20.47
					c8.168,4.963,14.356,1.171,22.105,2.064c8.887,1.022,16.319,6.167,25.714,6.815c19.306,1.333,39.915-4.912,58.319-5.346
					c12.673-0.294,40.563,16.658,52.682,2.275c13.494-16.01-21.145-35.457-34.755-36.449c1.819-39.593-38.025-15.174-46.843-0.312"
					/>
			</g>
			<g>
				<path style="fill:#E1DCD7;" d="M60.345,440.535c-17.956-30.148,9.276-70.801,38.241-96.428
					c28.859-25.537,59.046-22.74,88.407-0.148c31.781,24.463,84.122-23.459,122.647-19.402c37.403,3.936,32.97,33.68,50.162,36.502
					c20.783,3.414,37.808-7.182,58.724,2.984c17.901,8.701,34.571,32.844,28.93,51.799c-7.461,25.068-76.581,27.789-102.808,31.877
					c-34.376,5.361-67.316-1.369-101.977,0.855c-43.532,2.793-86.576,6.461-129.61,7.822
					C113.06,456.397,66.502,450.871,60.345,440.535z"/>
				<g>
					<path style="fill:#6FADAE;" d="M113.464,424.383c-24.18,2.348-49.203-7.43-65.966-25.773c-2.817-3.078-5.482-6.527-6.53-10.637
						c-1.053-4.113-0.113-9.027,3.181-11.529c5.123-3.895,12.238-0.297,17.518,3.373c15.871,11.037,31.26,22.824,46.104,35.314
						c-12.907-12.125-25.841-24.283-37.377-37.824c-5.807-6.813-11.403-14.283-13.428-23.145c-0.276-1.221-0.473-2.566,0.077-3.678
						c1.491-3.014,5.901-1.256,8.437,0.885c14.36,12.139,27.401,25.98,38.79,41.16c-9.342-11.705-18.669-24.465-20.778-39.521
						c-0.365-2.588-0.442-5.451,1.027-7.563c1.896-2.732,5.845-3.184,8.818-1.834c2.973,1.346,5.152,4.065,7.039,6.816
						c11.487,16.805,15.742,37.658,19.732,57.859c0.621,3.152,1.245,6.439,0.49,9.563
						C119.842,420.971,117.294,424.012,113.464,424.383"/>
					<g>
						<defs>
							<path id="SVGID_1_" d="M113.464,424.383c-24.18,2.348-49.203-7.43-65.966-25.773c-2.817-3.078-5.482-6.527-6.53-10.637
								c-1.053-4.113-0.113-9.027,3.181-11.529c5.123-3.895,12.238-0.297,17.518,3.373c15.871,11.037,31.26,22.824,46.104,35.314
								c-12.907-12.125-25.841-24.283-37.377-37.824c-5.807-6.813-11.403-14.283-13.428-23.145
								c-0.276-1.221-0.473-2.566,0.077-3.678c1.491-3.014,5.901-1.256,8.437,0.885c14.36,12.139,27.401,25.98,38.79,41.16
								c-9.342-11.705-18.669-24.465-20.778-39.521c-0.365-2.588-0.442-5.451,1.027-7.563c1.896-2.732,5.845-3.184,8.818-1.834
								c2.973,1.346,5.152,4.065,7.039,6.816c11.487,16.805,15.742,37.658,19.732,57.859c0.621,3.152,1.245,6.439,0.49,9.563
								C119.842,420.971,117.294,424.012,113.464,424.383"/>
						</defs>
						<clipPath id="SVGID_00000031186226379115015910000008888829683568809129_">
							<use xlink:href="#SVGID_1_"  style="overflow:visible;"/>
						</clipPath>
						<g style="clip-path:url(#SVGID_00000031186226379115015910000008888829683568809129_);">
							<path style="fill:none;stroke:#FFFFFF;stroke-miterlimit:10;" d="M41.011,378.768c5.175,6.842,65.186,47.727,88.006,51.039
								c-0.826-0.195-1.666-0.373-2.487-0.59"/>
							<path style="fill:none;stroke:#FFFFFF;stroke-miterlimit:10;" d="M54.227,348.48c2.821,5.227,29.187,30.313,35.98,38.555
								c6.706,8.139,12.764,16.736,19.71,24.711c7.037,8.078,12.539,19.051,20.322,26.164c-0.484-0.592-1.131-1.012-1.638-1.549"/>
							<path style="fill:none;stroke:#FFFFFF;stroke-miterlimit:10;" d="M88.146,336.652c9.506,19.43,15.975,40.402,23.231,60.82
								c5.524,15.541,15.698,32.104,21.58,45.973"/>
						</g>
					</g>
				</g>
				<path style="fill:#B5B5B5;" d="M116.679,408.158c16.409-5.693,35.232-7.662,53.676-4.766c28.66,4.502,49.08,21.227,80.38,18.76
					c31.411-2.477,60.082-15.275,92.434-18.799c17.559-1.908,24.905-0.736,40.541,4.982c10.878,3.979,20.731,10.777,32.675,13.506
					c11.602,2.658,28.426-2.455,36.941,3.41c10.267,7.076,3.476,22.008-5.955,27.357c-17.72,10.055-49.384,10.682-71.744,11.127
					c-35.254,0.703-70.74-1.93-105.996-1.324c-52.228,0.9-106.182,2.361-158.628,0.051c-17.008-0.75-54.613-7.939-42.633-22.357
					C78.59,427.805,104.996,412.215,116.679,408.158z"/>
				<g>
					<path style="fill:#6FADAE;" d="M453.717,359.246c-2.177-3.603-18.773-8.1-32.021-0.596
						c-6.124,3.459-13.548,9.443-19.328,15.676l12.813-28.924c0.133-0.01,0.267-0.02,0.389-0.037
						c3.963,4.434,21.065,0.076,29.756-4.861c9.045-5.107,13.087-15.295,10.891-18.934c-1.483-2.461-12.8-5.522-21.84-0.416
						c-4.185,2.367-9.258,6.477-13.197,10.736l8.538-19.273c0.145,0.098,0.295,0.211,0.451,0.268
						c4.123,1.527,11.949-9.309,14.527-16.281c2.586-6.969,0.091-14.406-2.794-15.387c-1.944-0.658-9.555,2.891-12.132,9.852
						c-2.37,6.4-3.517,18.119-0.497,21.186c-2.667,5.363-6.183,12.406-10.27,20.629c-0.736-6.219-2.838-13.365-5.228-18.158
						c-4.642-9.287-14.615-13.842-18.358-11.824c-2.541,1.346-6.18,12.5-1.533,21.781c3.811,7.607,12.88,18.279,19.068,20.377
						c-5.637,11.316-11.933,23.971-18.355,36.902c0.799-10.129-3.214-26.174-7.993-35.725
						c-6.818-13.619-21.424-20.307-26.917-17.361c-3.719,1.984-9.058,18.336-2.236,31.953c6.679,13.338,24.406,33.119,32.693,30.098
						c-1.801,3.625-3.597,7.248-5.386,10.852c1.546,0.602,3.102,1.18,4.633,1.809l4.381-9.885
						c5.094,7.211,30.948,0.685,43.985-6.678C451.004,379.518,456.938,364.59,453.717,359.246z"/>
					<g>
						<defs>
							<path id="SVGID_00000057836292261900060230000005976279562208168074_" d="M453.717,359.246
								c-2.177-3.603-18.773-8.1-32.021-0.596c-6.124,3.459-13.548,9.443-19.328,15.676l12.813-28.924
								c0.133-0.01,0.267-0.02,0.389-0.037c3.963,4.434,21.065,0.076,29.756-4.861c9.045-5.107,13.087-15.295,10.891-18.934
								c-1.483-2.461-12.8-5.522-21.84-0.416c-4.185,2.367-9.258,6.477-13.197,10.736l8.538-19.273
								c0.145,0.098,0.295,0.211,0.451,0.268c4.123,1.527,11.949-9.309,14.527-16.281c2.586-6.969,0.091-14.406-2.794-15.387
								c-1.944-0.658-9.555,2.891-12.132,9.852c-2.37,6.4-3.517,18.119-0.497,21.186c-2.667,5.363-6.183,12.406-10.27,20.629
								c-0.736-6.219-2.838-13.365-5.228-18.158c-4.642-9.287-14.615-13.842-18.358-11.824c-2.541,1.346-6.18,12.5-1.533,21.781
								c3.811,7.607,12.88,18.279,19.068,20.377c-5.637,11.316-11.933,23.971-18.355,36.902c0.799-10.129-3.214-26.174-7.993-35.725
								c-6.818-13.619-21.424-20.307-26.917-17.361c-3.719,1.984-9.058,18.336-2.236,31.953
								c6.679,13.338,24.406,33.119,32.693,30.098c-1.801,3.625-3.597,7.248-5.386,10.852c1.546,0.602,3.102,1.18,4.633,1.809
								l4.381-9.885c5.094,7.211,30.948,0.685,43.985-6.678C451.004,379.518,456.938,364.59,453.717,359.246z"/>
						</defs>
						<clipPath id="SVGID_00000005264863732195198970000014441270287602562484_">
							<use xlink:href="#SVGID_00000057836292261900060230000005976279562208168074_"  style="overflow:visible;"/>
						</clipPath>
						<g style="clip-path:url(#SVGID_00000005264863732195198970000014441270287602562484_);">
							<path style="fill:none;stroke:#FFFFFF;stroke-miterlimit:10;" d="M360.35,328.297c-3.722,2.689,5.765,25.779,8.557,31.385
								c5.351,10.742,14.589,18.225,20.174,28.252"/>
							<path style="fill:none;stroke:#FFFFFF;stroke-miterlimit:10;" d="M456.604,358.48c-10.159,3.057-19.163,11.883-28.784,16.41
								c-7.939,3.734-15.529,7.832-23.587,11.398"/>
							<path style="fill:none;stroke:#FFFFFF;stroke-miterlimit:10;" d="M395.708,299.549c1.125,6.842,4.57,14.9,7.48,20.951
								c2.47,5.135,8.726,11.252,9.984,15.004"/>
							<path style="fill:none;stroke:#FFFFFF;stroke-miterlimit:10;" d="M458.115,318.539c-11.244,6.863-20.613,16.527-33.16,20.361
								"/>
						</g>
					</g>
				</g>
			</g>
		</g>
		<g>
			<g>
				<path style="fill:none;stroke:#282B4D;stroke-width:0.75;stroke-miterlimit:10;stroke-dasharray:2.012,2.012;" d="
					M198.659,217.299c-25.823-0.076-62.532-5.713-75.048-33.638c-15.205-33.925-12.909-72.326,16.65-97.451
					c10.3-8.754,31.222-17.945,41.604-4.498c9.134,11.828,1.616,29.631-8.465,37.134c-13.623,10.141-26.095-2.173-20.71-18.933
					c8.645-26.897,44.716-33.188,66.663-38.062c61.582-13.679,169.05,19.503,174.29,145.572c1.339,32.192-5.906,64.964-20.917,80.22
					c-12.464,12.668-28.545,12.873-30.267-1.477c-0.984-8.201,7.751-15.363,23.295-21.654c12.503-5.061,34.122-11.154,46.344-1.969"
					/>
				<g>
					<g>
						<path style="fill:#E1DCD7;" d="M419.033,258.262c1.478,3.738-0.352,7.957-4.093,9.434c-3.737,1.477-7.962-0.354-9.435-4.096
							c-1.477-3.734,0.355-7.957,4.094-9.432C413.337,252.691,417.561,254.525,419.033,258.262z"/>
						<path style="fill:#D82429;" d="M400.788,207.074c-1.199,3.615-1.59,7.305-1.273,10.865l0.221,1.778
							c0.41,2.676,12.46,39.742,12.46,39.742s31.219-22.85,32.882-24.44l1.4-1.451c2.383-2.659,4.277-5.851,5.481-9.46
							c4.705-14.132-2.939-29.396-17.067-34.097C420.765,185.309,405.495,192.943,400.788,207.074z M416.64,211.255
							c1.851-5.561,7.858-8.57,13.416-6.72c5.553,1.849,8.567,7.856,6.72,13.42c-1.854,5.559-7.866,8.567-13.425,6.719
							C417.791,222.823,414.794,216.813,416.64,211.255z"/>
					</g>
					<path style="fill:none;stroke:#FFFFFF;stroke-width:0.5;stroke-linecap:round;stroke-miterlimit:10;" d="M405.742,209.299
						c-0.965,2.908-1.279,5.876-1.024,8.737l0.178,1.431c0.331,2.154,10.021,31.965,10.021,31.965s25.111-18.379,26.447-19.655
						l1.126-1.171c1.914-2.137,3.439-4.704,4.409-7.609c3.786-11.366-2.364-23.642-13.725-27.422
						C421.81,191.792,409.527,197.931,405.742,209.299z"/>
				</g>
				<g>
					<path style="fill:#282B4D;" d="M343.838,48.532c23.138,11.064,32.923,38.792,21.857,61.929
						c-11.065,23.137-38.794,32.923-61.93,21.856c-23.136-11.065-32.922-38.792-21.855-61.931
						C292.976,47.25,320.704,37.464,343.838,48.532z"/>
					<path style="fill:#F8C331;" d="M341.968,52.441c20.977,10.034,29.852,35.17,19.817,56.15
						c-10.032,20.978-35.174,29.846-56.148,19.815c-20.978-10.032-29.851-35.17-19.816-56.149
						C295.852,51.28,320.99,42.407,341.968,52.441z"/>
					<path style="fill:#FFFFFF;" d="M340.898,54.673c19.746,9.443,28.095,33.104,18.653,52.85
						c-9.442,19.743-33.105,28.094-52.848,18.651c-19.744-9.444-28.097-33.105-18.651-52.848
						C297.495,53.582,321.155,45.229,340.898,54.673z"/>
					<g>
						<g>
							<path style="fill:#282B4D;" d="M324.015,88.567c1.032,0.495,1.47,1.73,0.975,2.764l0,0c-0.491,1.032-1.73,1.47-2.762,0.976
								l-15.862-7.586c-1.033-0.493-1.47-1.733-0.978-2.765l0,0c0.494-1.032,1.731-1.47,2.766-0.976L324.015,88.567z"/>
							<path style="fill:#6FADAE;" d="M311.987,115.129c1.216,0.582,1.728,2.037,1.146,3.252c-0.58,1.216-2.037,1.733-3.253,1.15
								c-1.217-0.58-1.732-2.038-1.148-3.254C309.314,115.062,310.77,114.547,311.987,115.129z"/>
							<path style="fill:#6FADAE;" d="M334.869,116.473c1.22,0.581,1.733,2.038,1.15,3.254c-0.58,1.216-2.039,1.73-3.256,1.147
								c-1.213-0.58-1.727-2.035-1.146-3.251C332.201,116.407,333.654,115.892,334.869,116.473z"/>
							<path style="fill:#6FADAE;" d="M337.722,61.317c1.218,0.581,1.732,2.038,1.15,3.252c-0.582,1.215-2.038,1.73-3.253,1.148
								c-1.215-0.581-1.73-2.038-1.149-3.254C335.051,61.25,336.507,60.735,337.722,61.317z"/>
							<path style="fill:#6FADAE;" d="M296.576,98.158c1.215,0.581,1.727,2.037,1.145,3.253c-0.581,1.216-2.037,1.73-3.251,1.149
								c-1.217-0.583-1.73-2.039-1.15-3.254C293.902,98.09,295.36,97.577,296.576,98.158z"/>
							<path style="fill:#6FADAE;" d="M352.206,101.149c1.216,0.582,1.731,2.039,1.149,3.253c-0.582,1.219-2.038,1.73-3.25,1.149
								c-1.222-0.582-1.733-2.037-1.15-3.252C349.536,101.083,350.991,100.568,352.206,101.149z"/>
							<path style="fill:#6FADAE;" d="M353.385,78.043c1.216,0.581,1.731,2.039,1.149,3.253c-0.582,1.219-2.038,1.73-3.25,1.149
								c-1.222-0.582-1.732-2.037-1.15-3.252C350.715,77.977,352.17,77.461,353.385,78.043z"/>
							<path style="fill:#6FADAE;" d="M297.625,78.043c1.214,0.581,1.729,2.038,1.148,3.254c-0.583,1.216-2.04,1.731-3.255,1.15
								c-1.216-0.584-1.729-2.04-1.146-3.255C294.954,77.976,296.408,77.462,297.625,78.043z"/>
							<path style="fill:#6FADAE;" d="M314.978,59.681c1.215,0.581,1.726,2.038,1.145,3.254c-0.578,1.214-2.035,1.728-3.251,1.147
								c-1.214-0.581-1.729-2.039-1.148-3.252C312.304,59.613,313.764,59.099,314.978,59.681z"/>
							<path style="fill:#282B4D;" d="M350.515,79.889c0.828-0.287,1.736,0.154,2.022,0.983l0,0
								c0.287,0.831-0.154,1.737-0.982,2.024l-27.178,9.387c-0.829,0.287-1.733-0.153-2.023-0.984l0,0
								c-0.286-0.832,0.153-1.737,0.984-2.022L350.515,79.889z"/>
						</g>
						<path style="fill:#282B4D;" d="M325.61,86.637c2.024,0.967,2.877,3.391,1.912,5.412c-0.966,2.019-3.388,2.877-5.411,1.909
							c-2.021-0.968-2.876-3.39-1.909-5.41C321.168,86.526,323.593,85.669,325.61,86.637z"/>
					</g>
				</g>
			</g>
			<g>
				<g>
					<g>
						
							<rect x="103.678" y="261.917" transform="matrix(0.0118 -0.9999 0.9999 0.0118 -207.0739 416.5381)" style="fill:#282B4D;" width="7.054" height="102.238"/>
						<polygon style="fill:#282B4D;" points="117.952,378.967 65.491,314.965 66.978,313.789 119.44,377.791 						"/>
						<g>
							
								<rect x="68.728" y="220.732" transform="matrix(0.0118 -0.9999 0.9999 0.0118 -165.2498 376.4846)" style="fill:#B5B5B5;" width="78.25" height="102.233"/>
							
								<rect x="91.238" y="221.321" transform="matrix(0.0118 -0.9999 0.9999 0.0118 -143.0139 377.166)" style="fill:#E1DCD7;" width="56.165" height="79.241"/>
						</g>
						<g>
							
								<rect x="69.467" y="148.698" transform="matrix(0.0118 -0.9999 0.9999 0.0118 -87.5279 301.1566)" style="fill:#427985;" width="78.276" height="92.329"/>
							
								<rect x="88.647" y="147.783" transform="matrix(0.0118 -0.9999 0.9999 0.0118 -68.5638 300.475)" style="fill:#6FADAE;" width="58.191" height="74.289"/>
						</g>
					</g>
					<rect x="86.596" y="173.123" style="fill:#FFD757;" width="34.274" height="17.69"/>
					<rect x="107.603" y="289.846" style="fill:#F6C130;" width="39.656" height="12.635"/>
					<rect x="107.603" y="269.31" style="fill:#FFD757;" width="39.656" height="12.635"/>
					
						<line style="fill:none;stroke:#282B4D;stroke-width:0.75;stroke-miterlimit:10;" x1="69.865" y1="160.178" x2="69.865" y2="219.564"/>
					
						<line style="fill:none;stroke:#282B4D;stroke-width:0.75;stroke-miterlimit:10;" x1="69.21" y1="243.516" x2="69.21" y2="296.668"/>
				</g>
				<g>
					<g>
						<g>
							<g>
								<g>
									<path style="fill:#FF9646;" d="M248.673,194.642c4.957-11.755,7.512-9.532,19.008-1.86l45.037,33.69l19.625-32.131
										l14.955,2.948l-22.541,48.622c-0.976,1.4-2.23,2.478-3.631,3.232c-3.525,2.64-8.474,2.865-12.291,0.215l-58.181-33.585
										C245.895,212.463,246.423,199.985,248.673,194.642z"/>
									<path style="fill:#FF9646;" d="M337.496,218.068l-14.193-6.671c0,0,7.789-14.254,9.04-17.057
										c1.248-2.804,0.367-15.497,0.367-15.497s-1.31-5.622,0.557-5.668c1.862-0.051,3.977,0.888,4.258,4.305
										c0.281,3.416,0.281,3.416,0.281,3.416l7.532-15.545c0,0,2.689-4.123,4.048-2.578c1.36,1.542-3.859,13.583-3.859,13.583
										s7.854-10.283,8.759-11.25c0.901-0.964,3.599-1.144,2.684,2.124c-0.312,1.112-7.58,13.199-7.58,13.199
										s7.711-9.41,9.119-10.067c1.213-0.566,1.935,0.19,1.729,1.834c-0.208,1.65-7.529,11.867-7.529,11.867
										s4.716-6.078,7.006-7.031c0.81-0.336,4.115-0.007,1.568,3.137c-2.546,3.136-4.056,5.035-6.975,8.788
										c-1.116,1.435-5.064,5.03-8.055,10.162C341.427,207.405,337.496,218.068,337.496,218.068z"/>
								</g>
								<path style="fill:none;stroke:#282B4D;stroke-width:0.5;stroke-linecap:round;stroke-miterlimit:10;" d="M338.411,182.913
									c-0.191,0.715,4.211,4.949,1.829,8.756"/>
								<path style="fill:none;stroke:#282B4D;stroke-width:0.5;stroke-linecap:round;stroke-miterlimit:10;" d="M342.745,192.291
									c0.876-1.397,2.832-3.033,4.184-3.322"/>
							</g>
							<g>
								<g>
									<path style="fill:#427985;" d="M340.565,183.421c-1.92-0.251-3.285-2.029-3.056-3.974l3.3-27.688
										c0.229-1.947,1.977-3.323,3.893-3.075l15.08,1.952c1.918,0.249,3.287,2.028,3.055,3.975l-3.296,27.688
										c-0.232,1.946-1.976,3.322-3.896,3.076L340.565,183.421z"/>
									<path style="fill:#282B4D;" d="M342.575,180.081c-1.521-0.189-2.614-1.601-2.435-3.151l2.55-22.017
										c0.18-1.544,1.565-2.645,3.093-2.454l11.989,1.512c1.522,0.196,2.613,1.609,2.436,3.155l-2.55,22.016
										c-0.18,1.549-1.563,2.644-3.089,2.451L342.575,180.081z"/>
								</g>
								<g>
									<path style="fill:none;stroke:#FFFFFF;stroke-width:0.5;stroke-miterlimit:10;" d="M349.76,161.294
										c-2.389,0-2.97,4.055-3.229,5.4c-0.437,2.281-1.134,3.395-3.152,4.664c3.41,1.564,8.27,2.063,12.092,1.803
										c-0.717-0.955-1.335-2.063-1.871-3.188c-0.533-1.121-0.178-5.191-0.178-6.426
										C353.421,161.594,351.37,161.294,349.76,161.294z"/>
									
										<line style="fill:none;stroke:#FFFFFF;stroke-width:0.5;stroke-miterlimit:10;" x1="346.02" y1="155.995" x2="347.408" y2="159.117"/>
									
										<line style="fill:none;stroke:#FFFFFF;stroke-width:0.5;stroke-miterlimit:10;" x1="354.922" y1="160.735" x2="356.888" y2="158.076"/>
									
										<line style="fill:none;stroke:#FFFFFF;stroke-width:0.5;stroke-miterlimit:10;" x1="351.454" y1="159.694" x2="351.916" y2="156.342"/>
								</g>
							</g>
						</g>
						<path style="fill:#D82429;" d="M243.451,186.335c0,0-8.677,10.459-0.095,24.184c8.583,13.726,24.049,23.537,24.049,23.537
							l22.201-27.125c0,0-14.222-11.191-20.812-16.927c-7.66-6.671-14.13-11.671-17.073-11.708
							C249.205,178.266,243.451,186.335,243.451,186.335z"/>
					</g>
					<g>
						<g>
							<path style="fill:#FF9646;" d="M337.662,384.855c-3.364-2.65-6.372-5.885-8.352-9.77c-2.232-4.369-2.837-9.336-2.985-14.221
								c-0.162-5.232-0.029-10.477,0.032-15.709c0.062-5.307,0.146-10.617,0.249-15.936c0.028-1.346,0.05-2.688,0.092-4.035
								c0.014-0.314-0.367-0.65-0.662-0.582c-3.805,0.844-7.605,1.701-11.4,2.572c-1.564,0.355-3.572,0.492-4.736,1.777
								c-0.919,1.023-1.029,2.523-0.886,3.842c0.186,1.686,0.666,3.342,0.987,5.022c0.369,1.943,0.696,3.893,0.967,5.857
								c0.552,3.887,0.907,7.797,1.079,11.719c0.08,1.988,0.11,3.973,0.1,5.957c-0.075,0.717-0.169,1.43-0.273,2.15
								c-0.218,1.434-0.476,2.865-0.78,4.285c-0.623,1.361-1.397,2.678-2.007,3.959c-0.624,1.352-1.17,2.799-1.177,4.318
								c-0.005,1.566,0.684,3.07,1.814,4.08c2.556,2.313,6.413,2.045,9.495,3.06c3.427,1.121,6.234,3.619,9.146,5.69
								c2.722,1.93,12.989,2.447,12.959,0.494C341.293,387.266,339.082,385.992,337.662,384.855"/>
							<g>
								<g>
									<path style="fill:#FFFFFF;" d="M306.056,377.522c0,0-1.671-1.932,1.218-6.713c2.874-4.793,4.309-5.42,4.309-5.42
										s4.163,2.916,8.201,4.141c4.044,1.227,7.005,1.359,8.153,1.121c1.142-0.228,3.425,8.791,10.363,10.934
										c6.852,2.111,5.945,5.441,5.563,7.967C343.487,392.07,306.056,377.522,306.056,377.522z"/>
									<path style="fill:#282B4D;" d="M305.015,380.51c1.977,1.979,6.013,3.055,8.108,3.498c3.462,0.74,7.022,1.537,10.282,3.363
										c5.218,2.897,18.56,6.623,20.457,2.18c1.079-2.518-5.06-1.844-7.046-2.484c-3.711-1.205-7.428-2.457-11.188-3.453
										c-2.684-0.709-19.323-11.529-20.008-8.568C305.621,375.045,302.526,378.012,305.015,380.51z"/>
								</g>
								<path style="fill:#FF6A29;" d="M327.203,376.141c0.607,0.449,5.037-2.691,2.655-3.191
									C329.858,372.949,325.145,374.629,327.203,376.141z"/>
								<path style="fill:#FF6A29;" d="M328.958,378.404c0.607,0.436,5.039-2.699,2.663-3.199
									C331.621,375.205,326.891,376.875,328.958,378.404z"/>
								<path style="fill:#FF6A29;" d="M330.829,380.734c0.602,0.449,5.043-2.699,2.66-3.199
									C333.489,377.535,328.769,379.219,330.829,380.734z"/>
								<path style="fill:#FF6A29;" d="M332.991,382.594c0.602,0.439,5.034-2.693,2.653-3.199
									C335.645,379.395,330.925,381.068,332.991,382.594z"/>
							</g>
						</g>
						<path style="fill:#427985;" d="M303.048,355.332c9.427,2.699,31.003,2.893,31.767,2.353
							c0.558-10.047-0.545-32.506,0.03-52.922c0.523-18.498,5.635-28.799-0.479-42.787c-9.471-21.672-79.217-6.346-109.392,15.432
							c-6.112,4.412-30.27-14.869-36.492-6.725c-0.338,0.441-10.301,23.012,2.666,41.904c5.973,8.701,16.744,6.105,40.086,2.617
							c13.229-1.982,68.338-19.885,72.263-26.48c0.995-1.674,1.073,5.434-0.417,13.686
							C301.5,311.139,299.81,344.244,303.048,355.332z"/>
						<g>
							<path style="fill:none;stroke:#282B4D;stroke-width:0.5;stroke-linecap:round;stroke-miterlimit:10;" d="M295.26,289.117
								c4.732-1.252,15.267-11.869,15.022-16.33"/>
							<path style="fill:none;stroke:#282B4D;stroke-width:0.5;stroke-linecap:round;stroke-miterlimit:10;" d="M308.076,285.049
								c1.076-1.41,2.982-5.764,3.793-6.045"/>
							<path style="fill:none;stroke:#282B4D;stroke-width:0.5;stroke-linecap:round;stroke-miterlimit:10;" d="M307.435,292.781
								c1.435-2.25,2.603-4.797,4.036-7.096c0.77-1.238,3.524-4.896,3.06-5.127"/>
						</g>
					</g>
					<g>
						
							<line style="fill:none;stroke:#282B4D;stroke-width:0.75;stroke-linecap:round;stroke-miterlimit:10;" x1="84.542" y1="131.186" x2="164.523" y2="312.756"/>
						<polygon style="fill:#D82429;" points="45.665,141.864 80.94,120.875 88.124,137.939 						"/>
					</g>
					<g>
						<g>
							<path style="fill:#F8C331;" d="M139.443,321.461c9.222-8.447,27.223-10.98,31.954-9.221
								c4.257,1.574,75.364,16.297,89.653,19.25c-2.953,4.063-4.649,8.68-4.709,13.59c-0.194,16.65,18.406,30.371,41.549,30.643
								c12.072,0.143,22.307-1.514,30.75-12.943c6.303-8.521,10.497-17.814,11.708-34.279c1.863-25.266-10.474-70.174-10.474-70.174
								l10.146,0.461c0,0,15.95,40.689,18.965,51.596c3.006,10.906-0.757,28.523-6.934,45.926
								c-6.177,17.41-16.638,38.156-36.388,48.891c-7.326,3.994-39.57,16.707-92.48-15.25c-27.581-16.654-98.085,2.918-98.085,2.918
								s-5.484-10-2.653-34.4C124.188,343.522,127.082,332.773,139.443,321.461z"/>
							<path style="fill:#FFD757;" d="M340.613,326.402c0.03-0.361-0.647,5.305-0.842,7.863c-1.212,16.459-5.41,25.76-11.708,34.285
								c-8.446,11.424-18.675,13.09-30.756,12.945c-23.136-0.273-41.737-13.994-41.542-30.645c0.016-1.215,0.37-4.59,0.576-5.771
								c2.263,15.01,19.577,29.023,41.051,29.277c12.08,0.145,22.309-1.514,30.756-12.943
								C334.446,352.897,339.402,342.857,340.613,326.402z"/>
							<path style="fill:#FFD757;" d="M347.077,360.059c3.406-11.709,5.409-24.928,5.574-38.945
								c0.291-24.475-5.058-46.66-13.907-62.684c1.186,0.16,2.51,0.945,2.51,0.945s16.432,33.94,19,42.018
								c5.161,16.178,7.276,25.217,7.279,33.203c0.01,12.736-3.771,23.289-10.004,33.32L347.077,360.059z"/>
						</g>
						<g>
							<g>
								<path style="fill:#282B4D;" d="M334.838,403.859c-0.289,24.34,19.2,44.293,43.527,44.578
									c24.334,0.291,44.287-19.199,44.573-43.535c0.289-24.326-19.197-44.285-43.531-44.57
									C355.079,360.041,335.125,379.535,334.838,403.859z"/>
								<path style="fill:#BA1C28;" d="M410.253,404.385c0,17.324-14.042,31.365-31.363,31.365
									c-17.322,0-31.366-14.041-31.366-31.365c0-17.322,14.044-31.367,31.366-31.367
									C396.211,373.018,410.253,387.063,410.253,404.385z"/>
								<g>
									<path style="fill:#6FADAE;" d="M351.289,404.063c-0.18,15.238,12.037,27.74,27.272,27.92
										c15.239,0.182,27.747-12.027,27.927-27.27c0.18-15.24-12.035-27.748-27.274-27.928
										C363.977,376.607,351.469,388.818,351.289,404.063z"/>
									<path style="fill:#282B4D;" d="M369.605,403.879c-0.058,4.914,3.879,8.938,8.78,8.998c4.916,0.057,8.939-3.875,8.997-8.787
										c0.058-4.908-3.873-8.939-8.786-8.998C373.693,395.033,369.665,398.971,369.605,403.879z"/>
								</g>
								<path style="fill:none;stroke:#282B4D;stroke-width:0.75;stroke-linecap:round;stroke-miterlimit:10;" d="M400.496,404.385
									c0,11.936-9.673,21.607-21.607,21.607c-11.934,0-21.608-9.672-21.608-21.607c0-11.932,9.675-21.607,21.608-21.607
									C390.823,382.777,400.496,392.453,400.496,404.385z"/>
							</g>
							<g>
								<path style="fill:#D82429;" d="M399.793,382.852c-9.787-0.576-20.708,1.051-29.977,4.869
									c-8.976,3.684-16.058,7.857-25.016,13.295c-4.586,2.791-9.835,6.086-15.25,6.852c-4.056,0.568-6.978-0.641-9.762-2.322
									c-0.181-1.885-0.3-3.777-0.277-5.705c0.355-30.039,26.723-54.086,58.892-53.705c23.332,0.275,43.25,13.361,52.333,31.967
									C422.304,385.15,410.167,383.463,399.793,382.852z"/>
								<path style="fill:#F45B66;" d="M370.42,356.522c-10.483-0.123-20.251,2.766-28.367,7.805
									c9.313-9.504,22.723-15.432,37.618-15.256c20.134,0.236,37.323,11.531,45.161,27.588c-3.167,2.641-6.933,3.863-10.917,4.353
									C405.472,366.615,389.234,356.742,370.42,356.522z"/>
							</g>
						</g>
						<g>
							<g>
								<path style="fill:#282B4D;" d="M129.919,401.768c-0.288,24.34,19.2,44.293,43.528,44.578
									c24.333,0.291,44.286-19.199,44.573-43.533c0.287-24.328-19.198-44.285-43.531-44.572
									C150.16,357.949,130.206,377.443,129.919,401.768z"/>
								<path style="fill:#BA1C28;" d="M205.335,402.295c0,17.322-14.043,31.363-31.366,31.363
									c-17.322,0-31.365-14.041-31.365-31.363c0-17.324,14.043-31.367,31.365-31.367
									C191.292,370.928,205.335,384.971,205.335,402.295z"/>
								<g>
									<path style="fill:#6FADAE;" d="M146.37,401.971c-0.18,15.238,12.036,27.74,27.272,27.922
										c15.24,0.18,27.747-12.029,27.927-27.272c0.18-15.24-12.035-27.746-27.275-27.926
										C159.059,374.516,146.549,386.727,146.37,401.971z"/>
									<path style="fill:#282B4D;" d="M164.686,401.789c-0.059,4.912,3.878,8.936,8.779,8.996
										c4.916,0.059,8.939-3.875,8.998-8.783c0.059-4.912-3.872-8.942-8.787-9.002
										C168.774,392.943,164.745,396.879,164.686,401.789z"/>
								</g>
								<path style="fill:none;stroke:#282B4D;stroke-width:0.75;stroke-linecap:round;stroke-miterlimit:10;" d="M195.577,402.295
									c0,11.934-9.674,21.607-21.608,21.607c-11.933,0-21.607-9.674-21.607-21.607s9.674-21.609,21.607-21.609
									C185.903,380.685,195.577,390.361,195.577,402.295z"/>
							</g>
							<g>
								<path style="fill:#D82429;" d="M196.934,390.647c-38.621-0.455-64.419,3.641-88.424,14.371
									c-0.125-2.115,0.514-6.715,0.539-8.883c0.493-41.639,34.692-63.578,69.587-63.166c23.904,0.281,49.139,13.244,58.549,39.383
									c1.89,5.25,2.613,16.203,2.44,27.531C228.066,397.719,209.887,390.801,196.934,390.647z"/>
								<path style="fill:#F45B66;" d="M136.12,363.291c30.58-18.398,63.272-4.947,73.106-1.234
									c8.475,3.199,14.601,8.633,19.475,15.084c-0.347-2.621-0.833-4.828-1.474-6.379c-8.204-19.824-30.206-29.658-51.048-29.871
									c-28.138-0.291-55.737,13.932-60.072,41.055C120.649,376.135,129.103,367.51,136.12,363.291z"/>
							</g>
						</g>
					</g>
					<g>
						<g>
							<path style="fill:#FF9646;" d="M241.076,153.101c-4.125,5.753-5.336,9.708-11.378,14.944
								c-2.542,2.204,22.562,19.936,21.6,15.529c-0.677-3.099,0.481-5.753,1.73-8.264c2.243-4.506,4.407-8.121,6.854-11.74
								C255.306,161.386,245.643,156.03,241.076,153.101z"/>
						</g>
						<g>
							<path style="fill:#FF6A29;" d="M254.151,173.126c1.853-3.524,3.693-6.543,5.731-9.556
								c-4.188-1.998-12.624-6.647-17.527-9.667C243.278,162.392,247.899,168.542,254.151,173.126z"/>
						</g>
						<g>
							<path style="fill:#FF9646;" d="M252.758,134.815c-2.836-0.22-5.623,1.327-7.367,3.54c-1.746,2.206-2.576,5.003-2.91,7.787
								c-0.526,4.448,0.133,9.021,1.9,13.148c1.265,2.955,3.163,5.747,5.913,7.466c6.67,4.197,12.889,2.255,15.938-2.776
								c2.317-3.833,2.835-9.999,3.439-14.417c0.608-4.422-0.593-9.289-4.026-12.172
								C261.541,133.941,255.477,134.103,252.758,134.815"/>
							<g>
								<path style="fill:#282B4D;" d="M254.849,127.845c-1.355-0.78-3.954-0.575-5.462-0.119c-1.507,0.443-2.826,1.359-3.975,2.395
									c-3.876,3.484-5.559,8.698-5.889,13.844c-0.078,1.026,0.477,3.742,0.813,4.003c0.91,0.69,3.131,0.483,3.821,1.402
									c0.937-2.904,1.002-6.125,2.814-8.596c1.811-2.467,5.881-4.265,8.969-4.234
									C256.105,134.499,254.849,127.845,254.849,127.845"/>
								<path style="fill:#282B4D;" d="M254.559,127.704c0.564,2.928,1.213,5.866,1.381,8.838c4.061-0.808,8.631,1.082,11.434,4.048
									c3.371,3.586,2.369,5.986,1.985,11.023c3.175-3.752,5.495-14.715-3.393-21.637c-2.828-2.207-7.645-3.559-11.136-2.304
									L254.559,127.704z"/>
							</g>
							<path style="fill:#FF9646;" d="M243.628,146.878c-1.021-1.256-2.601-2.638-4.782-2.001c-1.411,0.407-2.44,1.583-2.731,2.667
								c-0.288,1.072,0.005,2.085,0.312,3.051c0.409,1.269,0.846,2.547,1.735,3.602c0.878,1.056,2.27,1.881,4.049,1.993
								c0.964,0.069,2.187-0.16,2.859-0.833c0.362-0.376,0.506-0.81,0.605-1.217C246.423,151.088,244.925,148.484,243.628,146.878z"
								/>
							<g>
								<g>
									<path style="fill:none;stroke:#282B4D;stroke-width:0.5;stroke-linecap:round;stroke-miterlimit:10;" d="M250.555,146.355
										c1.297-0.675,3.508-1.112,5.689-1.107"/>
									<path style="fill:none;stroke:#282B4D;stroke-width:0.5;stroke-linecap:round;stroke-miterlimit:10;" d="M262.352,145.354
										c2.616-0.335,4.061-0.142,5.361,1.143"/>
									<path style="fill:none;stroke:#282B4D;stroke-width:0.5;stroke-linecap:round;stroke-miterlimit:10;" d="M261.899,147.526
										c-1.046,4.007,2.94,7.575-1.733,8.314"/>
									<path style="fill:none;stroke:#282B4D;stroke-width:0.5;stroke-linecap:round;stroke-miterlimit:10;" d="M257.524,154.992
										c0.283,0.218,0.639,0.409,1.05,0.548"/>
									<path style="fill:none;stroke:#282B4D;stroke-width:0.5;stroke-linecap:round;stroke-miterlimit:10;" d="M263.353,158.797
										c-1.877,1.429-4.79,3.231-8.058-0.294"/>
								</g>
								<g>
									<path style="fill:#282B4D;" d="M256.098,148.568c-0.237,0.569-0.874,0.846-1.448,0.614
										c-0.569-0.22-0.845-0.876-0.614-1.439c0.228-0.576,0.872-0.852,1.44-0.626C256.047,147.342,256.322,147.99,256.098,148.568
										z"/>
									<path style="fill:#282B4D;" d="M266.675,149.094c-0.225,0.569-0.873,0.847-1.443,0.621
										c-0.577-0.227-0.855-0.876-0.617-1.448c0.215-0.569,0.872-0.847,1.449-0.624
										C266.622,147.874,266.9,148.524,266.675,149.094z"/>
								</g>
							</g>
						</g>
						<g>
							<path style="fill:#FFD757;" d="M256.517,139.121c6.234,0.276,12.008,1.22,16.837,2.619
								c0.266-10.235-6.868-18.795-16.106-19.203c-9.238-0.406-17.097,7.49-17.733,17.709
								C244.447,139.278,250.281,138.845,256.517,139.121z"/>
							<path style="fill:#F8C331;" d="M248.76,135.501c0.474-5.61,3.432-10.345,7.546-12.952
								c-8.824,0.149-16.18,7.831-16.791,17.697c4.724-0.925,7.862-1.025,9.316-1.1C248.692,137.964,248.656,136.745,248.76,135.501
								z"/>
							<path style="fill:#D82429;" d="M262.403,139.086c-6.888-0.076-13.448-0.138-13.46,0.019c-0.172,2.008,4.64,6.826,8.817,7.146
								c3.187,0.246,5.257,0.362,7.591,0.456c7.559,0.302,13.881-2.325,11.118-4.546c-2.813-2.261-2.729-1.992-3.172-2.568
								C273.298,139.594,268.038,139.151,262.403,139.086z"/>
						</g>
						<path style="fill:#E1DCD7;" d="M269.293,153.452c-1.125,5.311-0.656,15.256-10.335,15.503
							c-13.038,0.332-15.346-8.11-16.629-13.943c9.845-2.013,10.914-3.164,20.238-2.79
							C266.586,152.384,269.293,153.452,269.293,153.452z"/>
						<path style="fill:none;stroke:#282B4D;stroke-width:0.5;stroke-linecap:round;stroke-miterlimit:10;" d="M241.405,147.546
							c-1.287-0.314-2.465-0.501-2.789,1.148c-0.219,1.113,0.653,3.006,1.64,3.527"/>
					</g>
					<path style="fill:#282B4D;" d="M208.37,293.143c-23.948,3.225-41.804-23.338-46.766,17.375c-0.145,1.248-0.153,2.49-0.054,3.73
						l97.759,21.428c0,0,4.014-2.357,4.492-10.061C264.844,308.861,249.035,287.664,208.37,293.143z"/>
					<g>
						<g>
							<path style="fill:#FF9646;" d="M301.652,402.291c-2.86-3.371-5.223-7.234-6.388-11.484
								c-1.314-4.783-0.826-9.768,0.111-14.563c1.003-5.139,2.31-10.219,3.542-15.307c1.247-5.156,2.518-10.316,3.813-15.475
								c0.329-1.305,0.65-2.605,0.997-3.912c0.081-0.303-0.233-0.719-0.55-0.723c-4.095-0.07-8.185-0.127-12.273-0.17
								c-1.682-0.022-3.773-0.359-5.255,0.619c-1.171,0.779-1.618,2.219-1.765,3.537c-0.185,1.688-0.063,3.416-0.107,5.127
								c-0.055,1.978-0.157,3.957-0.316,5.938c-0.301,3.916-0.811,7.814-1.512,11.674c-0.359,1.957-0.772,3.9-1.227,5.83
								c-0.235,0.684-0.491,1.355-0.761,2.033c-0.542,1.348-1.128,2.682-1.756,3.992c-0.944,1.184-2.032,2.285-2.942,3.389
								c-0.94,1.172-1.824,2.455-2.172,3.934c-0.355,1.523,0.015,3.154,0.949,4.402c2.107,2.855,6.122,3.504,9.058,5.215
								c3.265,1.896,5.587,4.99,8.114,7.695c2.359,2.522,12.778,5.435,13.184,3.525C304.84,405.492,302.854,403.734,301.652,402.291
								"/>
							<g>
								<g>
									<path style="fill:#FFFFFF;" d="M270.866,387.719c0,0-1.283-2.275,2.747-6.26c4.018-3.994,5.633-4.27,5.633-4.27
										s3.618,3.818,7.487,5.961c3.873,2.148,6.883,2.971,8.113,3.008c1.223,0.049,1.55,9.375,8.19,13.096
										c6.556,3.666,4.883,6.701,3.926,9.072C306.017,410.695,270.866,387.719,270.866,387.719z"/>
									<path style="fill:#282B4D;" d="M269.131,390.383c1.587,2.396,5.486,4.395,7.537,5.318c3.386,1.533,6.859,3.146,9.799,5.691
										c4.703,4.051,17.56,10.816,20.496,6.934c1.671-2.201-12.397-3.33-19.33-11.406c-1.896-2.207-15.296-14.445-16.659-11.719
										C270.974,385.201,267.136,387.365,269.131,390.383z"/>
								</g>
								<path style="fill:#D82429;" d="M292.869,391.34c0.523,0.58,5.768-1.441,3.436-2.486
									C296.305,388.853,291.094,389.385,292.869,391.34z"/>
								<path style="fill:#D82429;" d="M294.163,393.957c0.525,0.568,5.772-1.443,3.446-2.488
									C297.609,391.469,292.384,391.98,294.163,393.957z"/>
								<path style="fill:#D82429;" d="M295.563,396.672c0.519,0.576,5.774-1.447,3.442-2.496
									C299.005,394.176,293.786,394.709,295.563,396.672z"/>
								<path style="fill:#D82429;" d="M297.366,398.988c0.519,0.572,5.765-1.44,3.437-2.494
									C300.803,396.494,295.588,397.018,297.366,398.988z"/>
							</g>
						</g>
						<path style="fill:#6FADAE;" d="M272.735,365.381c9.067,4.844,31.157,10.104,32.062,9.756
							c2.815-9.662,9.382-32.293,14.531-52.057c4.667-17.912,9.351-25.592,8.366-41.342c-0.331-5.303-4.921-13.779-14.765-15.256
							c-25.895-3.885-75.052-6.391-102.889,4.598c-7.255,2.865-34.888-17.221-34.888-17.221s-15.334,26.834-7.667,43.563
							c4.473,9.76,16.748,14.816,41.471,16.904c14.014,1.172,73.608-8.262,79.109-13.768c1.395-1.393-0.114,5.551-3.484,13.244
							C281.014,321.938,271.888,353.813,272.735,365.381z"/>
						<g>
							<path style="fill:none;stroke:#282B4D;stroke-width:0.5;stroke-linecap:round;stroke-miterlimit:10;" d="M279.528,299.006
								c5.134-0.104,18.313-7.98,19.059-12.387"/>
							<path style="fill:none;stroke:#282B4D;stroke-width:0.5;stroke-linecap:round;stroke-miterlimit:10;" d="M293.584,298.055
								c1.42-1.123,4.348-4.918,5.241-5.004"/>
							<path style="fill:none;stroke:#282B4D;stroke-width:0.5;stroke-linecap:round;stroke-miterlimit:10;" d="M291.2,305.438
								c1.974-1.853,3.741-4.06,5.725-5.969c1.066-1.025,4.709-3.941,4.282-4.273"/>
						</g>
						<path style="opacity:0.2;fill:#6FADAE;" d="M300.791,286.824c-2.31,5.693-7.895,9.594-12.21,14.176
							c-0.014,1.764-1.489,7.072-3.999,12.803c-3.568,8.135-12.694,40.01-11.847,51.578c1.904,1.016,4.385,2.051,7.121,3.049
							c4.29-9.674,6.503-20.148,10.997-29.748c4.468-9.543,10.237-18.676,13.136-28.881
							C305.552,304.301,306.696,293.387,300.791,286.824z"/>
						<path style="opacity:0.4;fill:#6FADAE;" d="M184.879,278.605c9.307,5.006,20.588,6.775,30.967,4.642
							c7.094-1.459,14.048-4.039,20.926-6.277c7.584-2.467,15.145-5.006,22.758-7.379c6.576-2.053,13.16-4.08,19.729-6.154
							c-23.904-0.945-51.085,0.484-69.219,7.643c-7.255,2.865-34.888-17.221-34.888-17.221s-2.331,4.086-4.72,10.053
							C173.564,270.154,178.636,275.248,184.879,278.605z"/>
					</g>
					<g>
						<g>
							<path style="fill:#FFD757;" d="M246.178,181.833c-7.761-5.173-11.621-7.581-14.026-15.995
								c-4.402,1.382-10.1,4.417-11.73,5.081c-6.885,2.807-18.166,8.699-32.999,42.649c0,0-7.257,21.324-15.322,41.956
								c-0.137,0.369-0.179,0.781-0.137,1.166c0.165,1.543,2.095,2.232,3.697,2.598c20.253,4.619,52.532,4.711,73.289,7.467
								c3.984,0.531,4.441-6.969,10.54-39.206c2.571-13.586-0.63-36.112-7.774-49.529
								C251.223,182.817,248.791,183.576,246.178,181.833z"/>
							<g>
								<path style="fill:none;stroke:#282B4D;stroke-width:0.5;stroke-linecap:round;stroke-miterlimit:10;" d="M228.654,241.872
									c4.104-3.01,7.532-5.498,10.623-9.619c1.62-2.173,3.454-4.389,4.948-6.613c0.612-0.911,3.65-6.771,2.337-4.266"/>
								<path style="fill:none;stroke:#282B4D;stroke-width:0.5;stroke-linecap:round;stroke-miterlimit:10;" d="M236.924,248.46
									c11.328-7.941,16.632-22.714,16.728-36.072"/>
								<path style="fill:none;stroke:#282B4D;stroke-width:0.5;stroke-linecap:round;stroke-miterlimit:10;" d="M239.277,216.309
									c2.896-3.976,4.869-9.328,6.535-12.023"/>
							</g>
							<path style="fill:#F8C331;" d="M217,240.5c0-10.428,14.383-61.961,17.791-68.46c-1.055-1.684-1.915-3.667-2.64-6.202
								c-4.402,1.382-10.1,4.417-11.73,5.081c-6.885,2.807-18.166,8.699-32.999,42.649c0,0-7.257,21.324-15.322,41.956
								c-0.137,0.369-0.179,0.781-0.137,1.166c0.165,1.543,2.095,2.232,3.697,2.598c20.253,4.619,52.532,4.711,73.289,7.467
								c2.957,0.395,2.732,1.526,5.551-13.754C252.004,252.084,217,256,217,240.5z"/>
						</g>
						<g>
							<g>
								<path style="fill:#282B4D;" d="M307.236,242.987c-1.446,2.86-4.946,4-7.802,2.558l-13.844-7.021
									c-2.863-1.447-4.008-4.944-2.552-7.811l2.474-4.886c1.449-2.856,4.943-4.004,7.804-2.551l13.845,7.01
									c2.859,1.455,4.005,4.95,2.558,7.81L307.236,242.987z"/>
								<polygon style="fill:#282B4D;" points="317.534,248.678 302.739,237.483 302.774,234.484 321.311,247.59 								"/>
							</g>
							<g>
								<path style="fill:#282B4D;" d="M351.355,229.965c2.035,1.103,4.584,0.343,5.688-1.688l5.337-9.859
									c1.105-2.037,0.349-4.584-1.693-5.689l-3.48-1.885c-2.033-1.101-4.581-0.347-5.682,1.692l-5.343,9.853
									c-1.102,2.039-0.344,4.585,1.691,5.69L351.355,229.965z"/>
								<polygon style="fill:#282B4D;" points="347.578,237.577 351.766,224.846 350.511,223.08 344.888,238.483 								"/>
							</g>
							<g>
								<g>
									<g>
										<path style="fill:#282B4D;" d="M298.115,251.137c0.173-0.063,0.354-0.076,0.537-0.084l0.583-0.105l-0.006,0.132
											c1.879,0.342,3.311,3.061,3.274,6.377c-0.044,3.539-3.11,6.818-5.155,6.797l-18.078,3.355l-2.546-13.313L298.115,251.137z
											"/>
										<path style="fill:#282B4D;" d="M274.144,261.691c0.703,3.686,3,6.332,5.127,5.918c2.128-0.406,3.289-3.719,2.584-7.385
											c-0.701-3.688-3.001-6.342-5.13-5.928C274.592,254.707,273.436,258.012,274.144,261.691z"/>
									</g>
									<g>
										<path style="fill:#FCCE18;" d="M351.65,232.814c0,0-9.097-4.486-16.307,2.055c-7.212,6.535-7.423,9.975-13.056,12.352
											c-5.631,2.365-20.842,4.433-23.053,3.727c0,0,2.493,3.333,2.723,6.626c0.235,3.334-3.236,6.242-3.236,6.242
											s7.962-3.979,13.92-4.766c5.952-0.775,9.52-0.904,14.772,0.174c5.248,1.086,22.112,5.193,25.007,3.35
											C354.099,261.506,351.65,232.814,351.65,232.814z"/>
									</g>
									<g>
										<path style="fill:#427985;" d="M344.957,247.895c-0.097,8.275,2.612,15.027,6.04,15.066
											c3.428,0.041,6.293-6.645,6.388-14.917c0.101-8.283-3.01-15.479-6.437-15.52
											C347.519,232.484,345.055,239.614,344.957,247.895z"/>
									</g>
								</g>
								<path style="opacity:0.8;fill:#FFFFFF;" d="M356.398,247.97c0,6.737-1.871,12.198-4.181,12.198
									c-2.311,0-4.183-5.461-4.183-12.198c0-6.738,1.872-12.199,4.183-12.199C354.527,235.771,356.398,241.232,356.398,247.97z"/>
								<path style="fill:none;stroke:#282B4D;stroke-width:0.5;stroke-linecap:round;stroke-miterlimit:10;" d="M355.851,247.97
									c0,5.893-1.483,10.672-3.314,10.672c-1.828,0-3.312-4.779-3.312-10.672c0-5.896,1.483-10.674,3.312-10.674
									C354.367,237.296,355.851,242.074,355.851,247.97z"/>
							</g>
							<g>
								<g>
									<g>
										<path style="fill:#FF9646;" d="M262.14,254.09c-10.411,0.207-24.968-0.904-36.791-1.523
											c-11.064-0.582-12.209,0.248-12.209,0.248s16.585-45.137,18.122-60.64c-0.475-4.359-1.805-13.888-4.531-14.637
											c-6.52-1.782-11.591,0.366-16.94,4.26c-5.49,3.994-10.23,16.779-12.924,23.062c-0.234,0.891-0.461,1.757-0.683,2.602
											c-3.572,13.39-6.513,21.979-10.084,35.355c-1.568,5.902-3.155,11.963-2.357,17.997c0.806,6.029,4.54,12.129,10.736,14.313
											c4.159,1.465,8.79,1.008,13.218,0.535c3.778-0.402,7.568-0.826,11.303-1.469c15.98-2.777,29.699-4.244,47.064-8.066
											C265.296,263.272,262.911,256.553,262.14,254.09z"/>
									</g>
									<path style="fill:#FF9646;" d="M281.871,250.721c-7.751-3.381-13.965,1.471-21.362,3.555l-0.007,0.605
										c-0.718,1.629,0.982,4.959,1.604,6.678c0.991,2.775,0.612,4.992,3.958,4.566c3.492-0.447,5.795-0.324,9.338-0.914
										c-1.63-2.828-1.194-9.633,1.013-9.314c2.083,0.307,4.153,1.627,5.189,3.502c0.849,1.541,1.082,3.813,0.309,5.078
										c2.895-0.922,4.995-3.438,4.762-7.064C286.51,254.82,284.305,251.785,281.871,250.721z"/>
								</g>
								<path style="fill:#D82429;" d="M223.941,173.705c-6.449-2.007-14.984-0.872-23.348,15.159
									c-8.364,16.031-12.197,31.888-12.197,31.888s7.665-0.347,16.726,2.441c9.061,2.788,25.095,6.62,25.095,6.62
									s2.732-20.031,4.53-29.622c2.091-11.152-1.157-18.055-2.789-20.91C230.565,176.841,226.271,174.431,223.941,173.705z"/>
							</g>
							<path style="fill:none;stroke:#FFFFFF;stroke-width:0.5;stroke-miterlimit:10;" d="M288.691,225.019
								c-1.103,1.281-3.966,6.646-4.429,8.243c-1.107,3.814,15.256,9.351,17.963,10.335"/>
							<path style="fill:none;stroke:#FFFFFF;stroke-width:0.5;stroke-miterlimit:10;" d="M303.456,257.992
								c6.521-4.43,20.547-5.781,26.207-4.674"/>
						</g>
					</g>
				</g>
			</g>
		</g>
	</g>
</g>
</svg>
